<?xml version="1.0" encoding="UTF-8"?>
<svg id="Layer_1" data-name="Layer 1" xmlns="http://www.w3.org/2000/svg" viewBox="0 0 506.9 95.63">
  <path d="M367.14,53.9c-.02,10.67-9.09,18.38-18.95,18.34-10.4-.04-18.9-8.33-18.91-18.92l-.04-35.13c0-4.81-3.49-8.4-8.11-8.52-4.12-.11-8.52,3.14-8.52,7.96l-.06,53.89-10.54-.02.06-53.51c.01-10.8,9.39-18.5,19.88-17.97,9.65.49,17.76,7.59,17.8,17.51l.15,37.27c.02,4.56,3.61,7.93,7.84,8.19,4.14.26,8.78-2.98,8.78-7.7l.04-54.26h10.64s-.08,52.85-.08,52.85Z"/>
  <path d="M485.39,25.17l10.51.02-14.03,42.36c-.99,2.98-3.57,4.83-6.25,4.94-2.88.12-5.8-1.52-6.93-4.59l-8.9-24.08-8.92,24.25c-1,2.73-3.75,4.36-6.25,4.41s-5.6-1.49-6.58-4.46l-14.1-42.84,10.87-.04,10.26,30.87,8.87-23.58c.99-2.63,3.34-4.15,5.79-4.23s5.18,1.17,6.18,3.81l9.19,24.41,10.28-31.27Z"/>
  <path d="M10.63,44.32v27.16S0,71.57,0,71.57V1.04s23.97.1,23.97.1c11.78.05,20.67,10.33,20.64,21.55s-9.22,21.49-21.11,21.56l-12.87.08ZM32.81,22.64c0-6.33-5.15-11.46-11.51-11.46s-11.51,5.13-11.51,11.46,5.15,11.46,11.51,11.46,11.51-5.13,11.51-11.46Z"/>
  <path d="M91.21,71.51l-24.14-.07c-12.74-.04-22.62-10.55-22.73-22.86s9.48-23.27,22.24-23.32l24.63-.1v46.35ZM81.65,48.32c0-7.38-6.01-13.36-13.41-13.36s-13.41,5.98-13.41,13.36,6.01,13.36,13.41,13.36,13.41-5.98,13.41-13.36Z"/>
  <path d="M423.59,48.32c0,13.38-10.89,24.23-24.33,24.23s-24.33-10.85-24.33-24.23,10.89-24.23,24.33-24.23,24.33,10.85,24.33,24.23ZM413.2,48.32c0-7.67-6.24-13.89-13.94-13.89s-13.94,6.22-13.94,13.89,6.24,13.89,13.94,13.89,13.94-6.22,13.94-13.89Z"/>
  <path d="M143.19,31.69l-30.44,63.89-11.32.05,12.33-25.67-18.19-38.61c-1.25-2.65.45-5.53,2.8-6.69,1.81-.9,5.34-.75,6.56,1.85l14.75,31.33,13.86-29.79c1.33-2.86,3.61-4.61,6.9-3.41,2.5.91,4.21,3.99,2.75,7.04Z"/>
  <path d="M258.95,71.51h-34.84s-.05-9.47-.05-9.47l20.91-.03c2.7,0,4.56-1.94,4.63-4.44.05-2.12-1.62-4.51-4.23-4.56l-8.4-.15c-7.77-.14-13.37-6.37-13.31-13.96.05-7.08,5.28-13.5,12.74-13.56l22.56-.17v9.51s-20.52-.02-20.52-.02c-2.7,0-4.73,1.87-4.78,4.46-.06,2.44,2.02,4.71,4.85,4.57h20.47s0,27.83,0,27.83Z"/>
  <path d="M206.38,25.24l10.07-.1v46.37s-22.76-.09-22.76-.09c-10.83-.04-18.88-8.5-19.67-19.15l-.02-27.11h10.1s.06,26.12.06,26.12c.01,6.11,5.37,10.72,11.02,10.73,6.19,0,11.14-4.83,11.2-11.16v-25.61Z"/>
  <path d="M277.32,52.58c.04,5.4,4.07,8.94,9,8.95l7.94-.04v10.04s-9.9-.16-9.9-.16c-9.69-.16-17.64-8.26-17.66-18.14l-.08-43.54,10.64-.02.02,15.49h15.08s.05,9.46.05,9.46l-15.21.05.13,17.89Z"/>
  <path d="M138.63,71.53v-10.03s8.39-.13,8.39-.13c4.57-.07,8.53-3.72,8.54-8.63l.07-51.7,10.64-.03-.12,52.61c-.02,9.84-8.15,17.05-17.53,17.82l-9.99.08Z"/>
  <path d="M506.9,64.23c0,4.56-3.71,8.26-8.3,8.26s-8.3-3.7-8.3-8.26,3.71-8.26,8.3-8.26,8.3,3.7,8.3,8.26ZM505.2,64.25c0-3.64-2.96-6.59-6.62-6.59s-6.62,2.95-6.62,6.59,2.96,6.59,6.62,6.59,6.62-2.95,6.62-6.59Z"/>
  <path d="M501.89,68.47c-2.34.6-2.02-1.82-3.83-2.84-.36-.21-.71,1.08-.74,1.51l-.08,1.17c-.02.27-.65.22-1.33.22l-.05-8.54,3.15-.08c.87-.02,2.39,1.11,2.64,1.97.34,1.17-.24,2.41-1.23,3.62l1.48,2.98ZM500.19,62.84c0-.77-.63-1.4-1.4-1.4s-1.4.63-1.4,1.4.63,1.4,1.4,1.4,1.4-.63,1.4-1.4Z"/>
</svg>