<?xml version="1.0" encoding="UTF-8"?>
<svg id="Layer_1" data-name="Layer 1" xmlns="http://www.w3.org/2000/svg" viewBox="0 0 203.19 203.19">
  <defs>
    <style>
      .cls-1 {
        fill: #cef800;
      }
    </style>
  </defs>
  <rect class="cls-1" width="203.19" height="203.19" rx="30.48" ry="30.48"/>
  <path d="M108.2,114.7l13.66,27.41c.79,1.59.56,3.69-.33,5s-2.54,2.29-4.5,2.29l-58.2-.02c-2.78,0-5.01-2.19-5.01-5.03V58.83c0-2.83,2.2-5.04,5.04-5.04h85.53c2.77,0,4.97,2.32,4.97,5.01v58.19c.01,1.95-.9,3.65-2.2,4.55-1.57,1.08-3.71,1.14-5.5.24l-26.2-13.11c-1.9-.95-3.99-.78-5.64.44-1.22.91-2.63,3.54-1.61,5.59Z"/>
</svg>