<?xml version="1.0" encoding="UTF-8"?>
<svg id="Layer_1" data-name="Layer 1" xmlns="http://www.w3.org/2000/svg" viewBox="0 0 95.55 95.61">
  <defs>
    <style>
      .cls-1 {
        fill: none;
        stroke: #000;
        stroke-miterlimit: 10;
        stroke-width: 3px;
      }
    </style>
  </defs>
  <path class="cls-1" d="M1.06,90.55l-.03-59.21c0-1.77,1.35-3.2,2.54-3.87,1.38-.78,3.24-.91,4.79-.14l27.28,13.6c1.73.86,3.94-.33,4.95-1.33,1.39-1.39,2.03-3.61,1.1-5.47L28.32,7.35c-.81-1.62-.72-3.36.23-4.95C29.2,1.33,30.69,0,32.48,0l58.58.02c2.87,0,4.73,2.67,4.73,5.36v84.25c0,2.39-1.77,5.13-4.38,5.13H5.45c-1.99.01-4.4-1.94-4.4-4.21Z"/>
</svg>