<?xml version="1.0" encoding="UTF-8"?>
<svg id="Layer_1" data-name="Layer 1" xmlns="http://www.w3.org/2000/svg" viewBox="0 0 95.55 95.61">
  <path d="M60.02,96.24H4.4c-2.63,0-4.65-2.52-4.65-5.08V8.83c0-1.86.97-3.43,2.15-4.26,1.5-1.06,3.44-1.36,5.17-.5l33.27,16.64c1.63.82,3.4.62,4.96-.31,1.06-.63,2.33-2.31,2.33-3.9l.02-10.82c0-2.4,1.8-5.18,4.53-5.18h38.65c2.32-.01,4.72,2.1,4.72,4.59v62.48c0,2.4-2.29,4.74-4.64,4.74l-30.54.02c-2.26,0-4.04,1.07-4.89,2.88-.89,1.91-.67,4.18.88,5.74l6.64,6.66c1.34,1.51,1.78,3.3,1.05,5.39-.56,1.13-1.79,3.22-4.02,3.22Z"/>
</svg>