<?xml version="1.0" encoding="UTF-8"?>
<svg id="Layer_1" data-name="Layer 1" xmlns="http://www.w3.org/2000/svg" viewBox="0 0 95.55 95.61">
  <path d="M21.13,96.21l-16.03.03c-2.21,0-5-1.85-5.01-4.29L0,75.42c0-1.75.91-3.59,2.56-4.41l36.21-18.14c1.66-.83,2.5-2.63,2.57-4.13.08-1.78-.61-3.73-2.41-4.63L2.71,25.95C1.15,25.17,0,23.41.01,21.71L.05,5.15C.06,2.74,2.48.66,4.92.66h85.38c3.02,0,5.17,2.28,5.17,5.3v85.21c0,2.83-2.4,5.04-5.07,5.05h-15.75c-2.22.02-3.76-1.35-4.7-3.23l-17.76-35.55c-.79-1.58-2.5-2.48-4.02-2.62s-3.78.45-4.62,2.13l-18.26,36.47c-.72,1.43-2.43,2.79-4.18,2.79Z"/>
</svg>