<?xml version="1.0" encoding="UTF-8"?>
<svg id="Layer_1" data-name="Layer 1" xmlns="http://www.w3.org/2000/svg" viewBox="0 0 95.55 95.61">
  <path d="M63.97,95.16H4.53C2.22,95.15,0,92.94,0,90.6V11.02c0-2.08,2.19-3.54,3.54-3.97,1.96-.62,3.85-.1,5.28,1.33l11.67,11.64c1.86,1.86,5.02,1.75,6.88-.11L45.99,1.27c.83-.83,2.1-1.66,3.33-1.66l41.78.03c2.39,0,4.44,2.53,4.44,4.91v58.41c.01,1.79-.94,3.3-2,4.11-1.39,1.06-3.39,1.54-5.03.73l-26.72-13.36c-2.11-1.05-4.24-.94-5.99.62-1.38,1.24-2.42,3.58-1.38,5.67l13.59,27.26c.72,1.45.56,3.16-.18,4.55-.56,1.07-1.96,2.63-3.86,2.63Z"/>
</svg>