<?xml version="1.0" encoding="UTF-8"?>
<svg id="Layer_1" data-name="Layer 1" xmlns="http://www.w3.org/2000/svg" viewBox="0 0 95.55 95.61">
  <path d="M20.32,62.28l-13.36,6.55C4.21,70.18,0,68.14,0,64.79v-32.68c0-3.34,4.21-5.4,6.96-4.05l13.23,6.52c2.12,1.04,4.59-.31,5.73-1.92,1.24-1.75,1.53-4.43-.19-6.16L8.2,8.88c-1.27-1.28-1.28-3.7-.63-5.16.53-1.2,1.88-3.07,3.8-3.07h79.7c2.46,0,4.48,2.52,4.48,4.92v85.38c0,2.53-1.76,5.28-4.48,5.28H11.37c-1.93,0-3.27-1.86-3.79-3.05-.68-1.54-.66-3.9.62-5.18l17.52-17.61c1.64-1.65,1.45-4.19.34-5.95-1.01-1.58-3.5-3.26-5.74-2.17Z"/>
</svg>