<?xml version="1.0" encoding="UTF-8"?>
<svg id="Layer_1" data-name="Layer 1" xmlns="http://www.w3.org/2000/svg" viewBox="0 0 95.55 95.61">
  <defs>
    <style>
      .cls-1 {
        fill: none;
        stroke: #000;
        stroke-miterlimit: 10;
        stroke-width: 3px;
      }
    </style>
  </defs>
  <path class="cls-1" d="M86.49,87.08l-11.37-11.54c-2.09-2.12-5.26-1.74-7.24.27l-16.69,16.99c-2.02,2.06-5.39,1.52-7.28-.41l-16.11-16.47c-2.35-2.4-5.51-2.34-7.83.03l-11.13,11.41c-1.55,1.59-3.8,1.93-5.83,1.05C1.13,87.58,0,85.76,0,83.29V6.07C0,2.93,2.24.66,5.29.66h16.75c1.1,0,2.45.59,3.23,1.37l18.99,18.99c1.75,1.75,4.97,2.01,6.76.22L70.01,2.26c1.06-1.06,2.56-1.61,4.03-1.61l16.48.03c2.61,0,5.03,2.12,5.03,4.93v78.44c0,2.29-1.78,3.91-3.32,4.48-2.24.83-4.19.11-5.74-1.46Z"/>
</svg>