<?xml version="1.0" encoding="UTF-8"?>
<svg id="Layer_1" data-name="Layer 1" xmlns="http://www.w3.org/2000/svg" viewBox="0 0 95.55 95.61">
  <path d="M95.55,90.19c0,2.81-1.59,4.58-3.61,5.19-2.34.7-4.63-.28-5.89-2.34l-10.36-16.89c-.81-1.32-2.48-2.15-3.7-2.25-1.7-.14-3.03.54-4.22,1.73l-18.62,18.64c-.71.71-2.1,1.31-3.16,1.31l-41.92-.06c-2.25,0-4.09-2.66-4.09-4.77L0,4.37C0,2.03,2.4.5,4.02.21c2.19-.4,4.19.45,5.38,2.37l10.52,17.04c1.72,2.78,5.46,2.74,7.58.62L46.31,1.4C47.08.62,48.46,0,49.62,0l41.2.02c2.58,0,4.73,2.45,4.73,5.05v85.12Z"/>
</svg>